<svg width="200" height="300" viewBox="0 0 200 300" fill="none" xmlns="http://www.w3.org/2000/svg">
  <defs>
    <linearGradient id="bottleGradient1" x1="0%" y1="0%" x2="100%" y2="100%">
      <stop offset="0%" style="stop-color:#e3f2fd;stop-opacity:1" />
      <stop offset="100%" style="stop-color:#bbdefb;stop-opacity:1" />
    </linearGradient>
    <linearGradient id="waterGradient1" x1="0%" y1="0%" x2="100%" y2="100%">
      <stop offset="0%" style="stop-color:#00b4db;stop-opacity:0.8" />
      <stop offset="100%" style="stop-color:#0083b0;stop-opacity:0.6" />
    </linearGradient>
  </defs>
  
  <!-- Bottle Body -->
  <rect x="50" y="80" width="100" height="180" rx="20" ry="20" fill="url(#bottleGradient1)" stroke="#0083b0" stroke-width="2"/>
  
  <!-- Bottle Neck -->
  <rect x="75" y="40" width="50" height="50" rx="5" ry="5" fill="url(#bottleGradient1)" stroke="#0083b0" stroke-width="2"/>
  
  <!-- Bottle Cap -->
  <rect x="70" y="20" width="60" height="30" rx="8" ry="8" fill="#0083b0"/>
  <rect x="75" y="25" width="50" height="10" rx="3" ry="3" fill="#ffd166"/>
  
  <!-- Water Inside -->
  <rect x="55" y="85" width="90" height="170" rx="18" ry="18" fill="url(#waterGradient1)"/>
  
  <!-- Highlight -->
  <rect x="60" y="85" width="15" height="170" rx="8" ry="8" fill="rgba(255,255,255,0.3)"/>
  
  <!-- Label -->
  <rect x="65" y="130" width="70" height="40" rx="5" ry="5" fill="white" opacity="0.9"/>
  <text x="100" y="145" text-anchor="middle" font-family="Arial, sans-serif" font-size="10" font-weight="bold" fill="#0083b0">TUSSAR</text>
  <text x="100" y="158" text-anchor="middle" font-family="Arial, sans-serif" font-size="8" fill="#666">Pure Water</text>
  <text x="100" y="168" text-anchor="middle" font-family="Arial, sans-serif" font-size="8" fill="#666">1L</text>
  
  <!-- Reflection -->
  <ellipse cx="85" cy="120" rx="8" ry="15" fill="rgba(255,255,255,0.4)"/>
</svg>
