<svg width="1920" height="1080" viewBox="0 0 1920 1080" fill="none" xmlns="http://www.w3.org/2000/svg">
  <defs>
    <linearGradient id="heroGradient" x1="0%" y1="0%" x2="100%" y2="100%">
      <stop offset="0%" style="stop-color:#00b4db;stop-opacity:1" />
      <stop offset="50%" style="stop-color:#0083b0;stop-opacity:1" />
      <stop offset="100%" style="stop-color:#005885;stop-opacity:1" />
    </linearGradient>
    <pattern id="waterDrops" patternUnits="userSpaceOnUse" width="100" height="100">
      <circle cx="20" cy="20" r="3" fill="rgba(255,255,255,0.1)"/>
      <circle cx="80" cy="60" r="2" fill="rgba(255,255,255,0.08)"/>
      <circle cx="50" cy="80" r="2.5" fill="rgba(255,255,255,0.06)"/>
    </pattern>
  </defs>
  
  <!-- Background Gradient -->
  <rect width="1920" height="1080" fill="url(#heroGradient)"/>
  
  <!-- Water Drop Pattern -->
  <rect width="1920" height="1080" fill="url(#waterDrops)"/>
  
  <!-- Abstract Water Waves -->
  <path d="M0,600 Q480,500 960,600 T1920,600 L1920,1080 L0,1080 Z" fill="rgba(255,255,255,0.05)"/>
  <path d="M0,700 Q480,620 960,700 T1920,700 L1920,1080 L0,1080 Z" fill="rgba(255,255,255,0.03)"/>
  
  <!-- Floating Elements -->
  <circle cx="200" cy="200" r="15" fill="rgba(255,221,102,0.3)"/>
  <circle cx="1600" cy="300" r="20" fill="rgba(255,221,102,0.2)"/>
  <circle cx="300" cy="800" r="12" fill="rgba(255,255,255,0.15)"/>
  <circle cx="1400" cy="150" r="8" fill="rgba(255,255,255,0.1)"/>
  <circle cx="1700" cy="800" r="18" fill="rgba(255,221,102,0.25)"/>
</svg>
